<?xml version="1.0" encoding="UTF-8"?>
<svg width="10px" height="10px" viewBox="0 0 10 10" version="1.1" xmlns="http://www.w3.org/2000/svg" xmlns:xlink="http://www.w3.org/1999/xlink">
    <!-- Generator: sketchtool 51.1 (57501) - http://www.bohemiancoding.com/sketch -->
    <title>074A2EFC-0767-4FBC-B224-CD6B62468415</title>
    <desc>Created with sketchtool.</desc>
    <defs></defs>
    <g id="Page-1" stroke="none" stroke-width="1" fill="none" fill-rule="evenodd">
        <g id="Новости-главная" transform="translate(-1007.000000, -971.000000)" fill="#FFFFFF" fill-rule="nonzero">
            <g id="share" transform="translate(1007.000000, 971.000000)">
                <path d="M8.1611299,6.35563752 C7.57724204,6.35563752 7.06221711,6.63145768 6.72573358,7.05383895 L3.60477018,5.47129124 C3.64562829,5.32019361 3.67499505,5.16407417 3.67499505,4.9997679 C3.67499505,4.82090258 3.6401167,4.65250289 3.59144874,4.48863972 L6.69864381,2.91339264 C7.03327595,3.35489058 7.56162232,3.64345518 8.16157678,3.64345518 C9.17787959,3.64345518 10,2.82829604 10,1.82150604 C10.0000213,0.815623338 9.17787959,0 8.16159806,0 C7.14759352,0 6.32455806,0.815623338 6.32455806,1.82148494 C6.32455806,1.98625541 6.35394611,2.14281796 6.3952511,2.29437978 L3.27473458,3.87692749 C2.93780417,3.45410312 2.42184291,3.17737566 1.83704,3.17737566 C0.821652242,3.17737566 0,3.9934421 0,4.9997679 C0,6.0060937 0.821673522,6.82171704 1.83704,6.82171704 C2.43790951,6.82171704 2.965809,6.53224513 3.30180308,6.09030409 L6.40761493,7.66555118 C6.35894697,7.82895014 6.32362173,7.99872134 6.32362173,8.17805086 C6.32362173,9.18437666 7.14665719,10 8.16066173,10 C9.17696454,10 9.99908495,9.18437666 9.99908495,8.17805086 C9.99955311,7.17081775 9.17743271,6.35563752 8.1611299,6.35563752 Z" id="Shape"></path>
            </g>
        </g>
    </g>
</svg>