<?xml version="1.0" encoding="UTF-8"?>
<svg width="12px" height="7px" viewBox="0 0 12 7" version="1.1" xmlns="http://www.w3.org/2000/svg" xmlns:xlink="http://www.w3.org/1999/xlink">
    <!-- Generator: sketchtool 51.1 (57501) - http://www.bohemiancoding.com/sketch -->
    <title>47EFE23D-EBA4-42FE-952E-F48C950D01B2</title>
    <desc>Created with sketchtool.</desc>
    <defs></defs>
    <g id="Page-1" stroke="none" stroke-width="1" fill="none" fill-rule="evenodd">
        <g id="Новости-главная" transform="translate(-1074.000000, -970.000000)" fill="#CECECE" fill-rule="nonzero">
            <g id="eye" transform="translate(1074.000000, 970.000000)">
                <path d="M6,0 C3.70727217,0 1.62810678,1.22752231 0.0938938325,3.22134523 C-0.0312979442,3.38469458 -0.0312979442,3.61290323 0.0938938325,3.77625257 C1.62810678,5.77247769 3.70727217,7 6,7 C8.29272783,7 10.3718932,5.77247769 11.9061062,3.77865477 C12.0312979,3.61530542 12.0312979,3.38709677 11.9061062,3.22374743 C10.3718932,1.22752231 8.29272783,0 6,0 Z M6.16446763,5.9646534 C4.64252838,6.05833905 3.38570114,4.83081675 3.48143602,3.33905285 C3.55998773,2.10912835 4.57870512,1.11221688 5.83553237,1.0353466 C7.35747162,0.941660947 8.61429886,2.16918325 8.51856398,3.66094715 C8.43755753,4.88846946 7.41884014,5.88538092 6.16446763,5.9646534 Z M6.08837067,4.82601235 C5.26848727,4.87645848 4.59097883,4.2158545 4.64498312,3.41352093 C4.68671372,2.75051476 5.23657564,2.21482498 5.91408407,2.17158545 C6.73396747,2.12113933 7.41147591,2.78174331 7.35747162,3.58407687 C7.31328628,4.24948524 6.76342436,4.78517502 6.08837067,4.82601235 Z" id="Shape"></path>
            </g>
        </g>
    </g>
</svg>